<svg xmlns="http://www.w3.org/2000/svg" viewBox="0 0 181.45 32.2"><defs><style>.cls-1{fill:#0052a1;}.cls-2{fill:#e42d1f;}.cls-3{fill:#fff;}</style></defs><g id="Capa_2" data-name="Capa 2"><g id="Capa_1-2" data-name="Capa 1"><path class="cls-1" d="M118.43,28.11a12,12,0,1,1,8.63-20.36.8.8,0,0,0,1,.14l2.42-1.35a.64.64,0,0,0,.17-1,16.1,16.1,0,1,0-1.2,22.31.64.64,0,0,0-.07-1l-2.13-1.52a1,1,0,0,0-1.18,0A11.91,11.91,0,0,1,118.43,28.11Z"/><path class="cls-2" d="M118.43,23.53a7.43,7.43,0,1,1,4.76-13.17.3.3,0,0,0,.34,0l1.65-.93a.34.34,0,0,0,.07-.55,9.92,9.92,0,0,0-9-2.49A9.77,9.77,0,0,0,108.75,14,9.92,9.92,0,0,0,118.43,26a9.81,9.81,0,0,0,6-2.07.33.33,0,0,0,0-.53l-1.31-.93a.76.76,0,0,0-.83,0A7.58,7.58,0,0,1,118.43,23.53Z"/><path class="cls-3" d="M118.33,11.11h0Z"/><path class="cls-3" d="M118.49,11.11h0Z"/><path class="cls-1" d="M129.5,13.27,126,12.06a1.06,1.06,0,0,0-1.24.38l-.18.54.65.19a.32.32,0,0,1,.13.47c-.1.17-.33.07-.33.07l-.88-.27a.62.62,0,0,0-.64.38l-.23.65.72.25a.28.28,0,0,1,.17.42c-.09.22-.41.1-.41.1l-.94-.32s-.33-.12-.52.42l-.23.68,1.09.34a.36.36,0,0,1-.15.5l-3.84-1.26s-.85-.22-1.1.48,0,1,.87,1.3l6.57,2.16-2,.11a.76.76,0,0,0-.74.75c0,.75,1.59,1,1.59,1a10.51,10.51,0,0,0,4-.25l1.37-.17,1.69.58a.61.61,0,0,0,.85-.43l1.32-3.77a.86.86,0,0,0-.28-1l-3.67-3A.84.84,0,0,0,129.5,13.27Z"/><path class="cls-1" d="M135.92,30.78V10.71a1,1,0,0,1,1-1.08h2.2a1,1,0,0,1,1,1.08V30.78a1,1,0,0,1-1,1.09h-2.2A1,1,0,0,1,135.92,30.78Z"/><rect class="cls-1" x="143.1" y="10.78" width="4.05" height="3.78" rx="1.89"/><path class="cls-1" d="M143.1,30.78V17.5a1,1,0,0,1,1-1.08h2.21a1,1,0,0,1,1,1.08V30.78a1,1,0,0,1-1,1.09h-2.21A1,1,0,0,1,143.1,30.78Z"/><path class="cls-1" d="M180.82,31.87h-3.14a1,1,0,0,1-.9-.5l-3.65-5.45a.3.3,0,0,0-.55.18v4.68a1.07,1.07,0,0,1-1.06,1.09h-2a1.07,1.07,0,0,1-1.06-1.09V11.33a1.07,1.07,0,0,1,1.06-1.09h2a1.07,1.07,0,0,1,1.06,1.09V22.07a.3.3,0,0,0,.56.17l3.33-5.32a1,1,0,0,1,.91-.5h3.17c.6,0,.81.4.48.93L176.71,24a.32.32,0,0,0,0,.35l4.56,6.62C181.63,31.46,181.42,31.87,180.82,31.87Z"/><path class="cls-1" d="M157.92,28.42a4.28,4.28,0,1,1,3.6-6.59.59.59,0,0,0,.62.26l2.53-.6a.41.41,0,0,0,.28-.56,7.73,7.73,0,1,0,.09,6.22.47.47,0,0,0-.35-.64l-2.47-.41a.66.66,0,0,0-.67.31A4.28,4.28,0,0,1,157.92,28.42Z"/><path class="cls-2" d="M80.35,23.31a1.46,1.46,0,0,1-.5-1c0-.23,0-.83,0-.83a6.4,6.4,0,0,1-4.21,1.84c-2.9,0-5.58-1.13-5.5-4.38.07-3.53,3.54-5.42,7.4-5.59a2,2,0,0,0,1.8-2.49,2,2,0,0,0-2-1.38,2.19,2.19,0,0,0-2.11,2,.54.54,0,0,1-.6.4l-3-.34c-.53-.06-.46-.46-.46-.46.41-1.45,1.69-4.54,6.61-4.54,4.69,0,6,2.88,5.92,4.9v9.12c0,.74-.21,2,.79,2.68Zm-.95-8.65-3,1.63a3.09,3.09,0,0,0-1.75,2.49,2.08,2.08,0,0,0,2.47,1.83C79.5,20.37,79.3,18.5,79.4,17Z"/><path class="cls-2" d="M89.65,17.6a.42.42,0,0,1,.45.44c-.28,2.14,1.05,2.42,1.88,2.38a1.51,1.51,0,0,0,1.6-1.77c-.1-.86-1.22-1.37-2-1.83l-2.1-1.31c-1.92-1.21-3.26-2.6-3.26-4.77,0-2.34,2.17-4.07,5.86-4.07s5.26,2.23,5.36,5a.47.47,0,0,1-.49.42H94.07a.44.44,0,0,1-.46-.41c0-1.3-.64-1.93-1.78-1.92-.92,0-1.52.35-1.63,1.23s.71,1.29,1.45,1.75l3.13,1.93a5.38,5.38,0,0,1,2.63,3c.61,2.67-.38,5.78-5.7,5.78-2,0-5.63-1.14-5.44-5.41a.44.44,0,0,1,.46-.4Z"/><path class="cls-2" d="M67.09.47h-3A.47.47,0,0,0,63.6,1V8.68a5.9,5.9,0,0,0-4.68-1.91c-4.12,0-7.51,3.62-7.51,8.3s3.39,8.29,7.51,8.29a5.93,5.93,0,0,0,4.68-1.9v1.37a.47.47,0,0,0,.48.48h3a.47.47,0,0,0,.48-.48V1A.47.47,0,0,0,67.09.47Zm-7.72,19a4,4,0,0,1-4.23-4.39c.1-2.63,1.34-4.55,4.23-4.38a4.12,4.12,0,0,1,4.23,4.38A4.1,4.1,0,0,1,59.37,19.46Z"/><path class="cls-2" d="M40.66,8.81h.06c1-1.87,2.33-2.08,3.85-2.1C47,6.69,49,8,48.85,10.85v12a.51.51,0,0,1-.54.47h-3.2a.51.51,0,0,1-.54-.47V12.55c0-.38,0-1.06,0-1.06a2.11,2.11,0,0,0-.34-.81,1.91,1.91,0,0,0-2.86-.38,2,2,0,0,0-.3.32,2.09,2.09,0,0,0-.39,1V22.89a.51.51,0,0,1-.54.47h-3.2a.51.51,0,0,1-.54-.47V7.62a.51.51,0,0,1,.54-.47h3.2a.51.51,0,0,1,.54.47Z"/><ellipse class="cls-2" cx="13.3" cy="3.43" rx="1.92" ry="1.79"/><rect class="cls-2" x="11.2" y="7.14" width="4.21" height="16.23" rx="1.45"/><path class="cls-2" d="M33.48,14.92c0,.42,0,.81-.06,1.19a.74.74,0,0,1-.8.74H22A4.3,4.3,0,0,0,26.21,20a4.92,4.92,0,0,0,2.87-1.36,1.37,1.37,0,0,1,1-.4l2.09,0a.6.6,0,0,1,.6.9,6.78,6.78,0,0,1-6.64,4.25c-4.94,0-8.1-3.7-8.1-8.5s3.28-8.49,8-8.49C30.33,6.43,33.48,10.07,33.48,14.92Zm-3.73-1.46A3.88,3.88,0,0,0,26,10.2,4.13,4.13,0,0,0,22,13.46Z"/><path class="cls-2" d="M9.35,7.79V10c0,.53-.27.83-.75.83H6.94v9s-.07.7,1.31.65c.32,0,.78.11.72.89,0,.33,0,1.65,0,1.65,0,.36-.33.49-.65.53a15.87,15.87,0,0,1-3.46-.06,4.08,4.08,0,0,1-1.61-.67,2.22,2.22,0,0,1-.84-1.51V10.79H.75c-.48,0-.75-.3-.75-.83V7.79C0,7.26.27,7,.75,7H2.41V2.47c0-.53.27-.83.76-.83h3c.49,0,.76.3.76.83V7H8.6C9.08,7,9.35,7.26,9.35,7.79Z"/></g></g></svg>