<?xml version="1.0" encoding="UTF-8" standalone="no"?>
<!-- Generator: Gravit.io -->
<svg xmlns="http://www.w3.org/2000/svg" xmlns:xlink="http://www.w3.org/1999/xlink" style="isolation:isolate" viewBox="0 0 62.5 66.2" width="62.5pt" height="66.2pt"><defs><clipPath id="_clipPath_8j3mleN2X95DILJb1abEva9U13j54nPm"><rect width="62.5" height="66.2"/></clipPath></defs><g clip-path="url(#_clipPath_8j3mleN2X95DILJb1abEva9U13j54nPm)"><g><path d=" M 32.087 56.974 C 21.195 56.954 11.685 49.5 8.93 38.823 C 6.175 28.146 10.867 16.929 20.355 11.51 C 29.843 6.091 41.744 7.832 49.332 15.75 C 49.847 16.312 50.682 16.43 51.33 16.033 L 56.166 13.3 C 56.516 13.111 56.761 12.768 56.827 12.372 C 56.894 11.975 56.775 11.57 56.505 11.275 C 47.922 1.219 34.171 -2.547 21.757 1.757 C 9.342 6.061 0.751 17.573 0.047 30.849 C -0.658 44.126 6.665 56.505 18.552 62.134 C 30.439 67.762 44.509 65.512 54.107 56.448 C 54.395 56.181 54.547 55.795 54.52 55.401 C 54.493 55.007 54.289 54.646 53.968 54.423 L 49.711 51.345 C 49.009 50.825 48.056 50.825 47.353 51.345 C 43.074 54.978 37.67 56.97 32.087 56.974 Z " fill="rgb(0,82,161)"/><path d=" M 32.087 47.701 C 25.556 47.663 19.817 43.306 17.946 36.966 C 16.076 30.626 18.513 23.791 23.952 20.128 C 29.391 16.465 36.553 16.833 41.598 21.034 C 41.803 21.177 42.073 21.177 42.278 21.034 L 45.575 19.151 C 45.769 19.046 45.901 18.852 45.929 18.631 C 45.956 18.41 45.877 18.189 45.715 18.038 C 40.924 13.424 34.18 11.534 27.73 12.996 C 20.16 14.664 14.279 20.71 12.743 28.404 C 11.489 34.329 12.942 40.511 16.697 45.227 C 20.451 49.943 26.107 52.69 32.087 52.702 C 36.431 52.689 40.648 51.215 44.076 48.51 C 44.244 48.384 44.343 48.185 44.343 47.974 C 44.343 47.762 44.244 47.563 44.076 47.437 L 41.458 45.554 C 40.954 45.221 40.304 45.221 39.8 45.554 C 37.465 46.957 34.801 47.698 32.087 47.701 Z " fill="rgb(228,45,31)"/><path d=" M 54.207 26.926 L 47.213 24.476 C 46.311 24.131 45.292 24.448 44.736 25.246 L 44.376 26.339 L 45.675 26.724 C 45.845 26.804 45.972 26.956 46.022 27.139 C 46.072 27.322 46.04 27.518 45.935 27.676 C 45.735 28.02 45.275 27.817 45.275 27.817 L 43.517 27.271 C 42.969 27.21 42.448 27.524 42.238 28.04 L 41.778 29.356 L 43.217 29.862 C 43.391 29.906 43.533 30.032 43.601 30.2 C 43.668 30.368 43.651 30.559 43.557 30.713 C 43.377 31.158 42.737 30.915 42.737 30.915 L 40.859 30.267 C 40.859 30.267 40.2 30.024 39.82 31.118 L 39.36 32.494 L 41.538 33.183 C 41.636 33.356 41.66 33.563 41.603 33.754 C 41.546 33.946 41.415 34.105 41.239 34.195 L 33.565 31.644 C 33.565 31.644 31.867 31.199 31.367 32.616 C 31.367 32.616 31.367 34.641 33.106 35.248 L 46.234 39.622 L 42.238 39.844 C 41.422 39.866 40.77 40.537 40.759 41.363 C 40.759 42.882 43.936 43.388 43.936 43.388 C 46.608 43.74 49.322 43.568 51.929 42.882 L 54.667 42.537 L 58.044 43.712 C 58.381 43.867 58.769 43.859 59.1 43.69 C 59.43 43.521 59.667 43.208 59.743 42.841 L 62.38 35.208 C 62.662 34.482 62.434 33.655 61.821 33.183 L 54.487 27.109 C 54.4 27.039 54.306 26.978 54.207 26.926 Z " fill="rgb(0,82,161)"/></g></g></svg>